<svg xmlns="http://www.w3.org/2000/svg" width="500" height="21.991" viewBox="0 0 500 21.991">
  <g id="Group_17" data-name="Group 17" transform="translate(-234.075 -425.787)">
    <g id="Group_16" data-name="Group 16" transform="translate(234.075 425.787)">
      <path id="Path_17" data-name="Path 17" d="M359.594,430.456h8.842v16.91h11.933v-16.91h8.842V426.6H359.594Z" transform="translate(-265.782 -425.987)"/>
      <path id="Path_18" data-name="Path 18" d="M490.347,426.6l-8.6,20.767h10.8l1.165-3.531h7.308l1.257,3.531h11.81l-9.24-20.767Zm4.544,13.676,2.34-7.09,2.524,7.09Z" transform="translate(-296.648 -425.987)"/>
      <path id="Path_19" data-name="Path 19" d="M627.222,437.546,623.795,426.6H607.517v20.766h10.005V433.749l.184.059,4.712,13.557h8.322l5.14-13.528.122-.089v13.617h10.372V426.6H631.107Z" transform="translate(-328.455 -425.987)"/>
      <path id="Path_20" data-name="Path 20" d="M759.586,426.6H741.932v20.767h11.933v-7.209h6.18c8.812,0,11.26-1.573,11.26-5.874V432C771.3,427.993,768.8,426.6,759.586,426.6Zm-.215,8.128c0,1.869-.55,2.255-3.243,2.255h-2.264v-6.764h2.264c2.723,0,3.243.386,3.243,2.374Z" transform="translate(-362.36 -425.987)"/>
      <path id="Path_21" data-name="Path 21" d="M880.988,426.6H863.763v20.767h17.225c9.393,0,12.147-1.632,12.147-6.082v-8.751C893.135,427.875,889.648,426.6,880.988,426.6Zm.214,14.359c0,2.492-.734,2.937-3.58,2.937H875.7v-14h2.294c2.294,0,3.212.386,3.212,2.877Z" transform="translate(-393.135 -425.987)"/>
      <path id="Path_22" data-name="Path 22" d="M258.588,435.948l-7.21-2.474c-3.13-1.072-3.9-1.758-3.9-2.771v-.238c0-.954.583-1.43,2.762-1.43,2.3,0,2.761.477,2.761,1.46v2.384h12.118v-2.919c0-2.861-3.712-4.172-13.53-4.172h-2.577c-8.8,0-14.327,1.461-14.327,4.679v.029c0,2.563,1.473,4.142,6.75,5.93l7.271,2.444c3.835,1.281,4.112,1.847,4.112,3.367v.387c0,1.043-1.043,1.579-3.16,1.579-2.178,0-3.191-.625-3.191-1.579v-3.158H234.075v3.873c0,2.86,4.817,4.44,14.358,4.44h2.485c10.492,0,15.309-2.086,15.309-5.781v-.089C266.228,439.584,264.939,438.123,258.588,435.948Z" transform="translate(-234.075 -425.787)"/>
    </g>
  </g>
</svg>
